<svg xmlns="http://www.w3.org/2000/svg" xmlns:xlink="http://www.w3.org/1999/xlink" width="732" zoomAndPan="magnify" viewBox="0 0 549 145.500001" height="194" preserveAspectRatio="xMidYMid meet" version="1.0"><defs><filter x="0%" y="0%" width="100%" height="100%" id="cd7728c673"><feColorMatrix values="0 0 0 0 1 0 0 0 0 1 0 0 0 0 1 0 0 0 1 0" color-interpolation-filters="sRGB"/></filter><g/><clipPath id="c1828705d7"><path d="M 303 27 L 353 27 L 353 73.152344 L 303 73.152344 Z M 303 27 " clip-rule="nonzero"/></clipPath><clipPath id="e8c5a5f8b7"><path d="M 1.132812 -25 L 30 -25 L 30 4.050781 L 1.132812 4.050781 Z M 1.132812 -25 " clip-rule="nonzero"/></clipPath><mask id="a24fa22b67"><g><g filter="url(#cd7728c673)"><g><g><g clip-path="url(#e8c5a5f8b7)"><path fill="#a0041e" d="M 1.132812 -16.691406 L 10.371094 -24.792969 L 28.84375 -23.65625 L 29.976562 -5.183594 L 21.875 4.050781 C 21.875 3.941406 21.875 3.792969 21.875 3.605469 C 21.875 3.417969 21.820312 3.039062 21.714844 2.472656 C 21.605469 1.902344 21.484375 1.324219 21.347656 0.730469 C 21.214844 0.136719 20.972656 -0.59375 20.621094 -1.457031 C 20.269531 -2.324219 19.863281 -3.1875 19.40625 -4.050781 C 18.945312 -4.914062 18.324219 -5.847656 17.539062 -6.847656 C 16.757812 -7.84375 15.90625 -8.832031 14.988281 -9.804688 C 13.691406 -11.101562 12.328125 -12.21875 10.898438 -13.164062 C 9.464844 -14.109375 8.195312 -14.800781 7.089844 -15.230469 C 5.980469 -15.664062 4.96875 -16 4.050781 -16.246094 C 3.132812 -16.488281 2.429688 -16.636719 1.945312 -16.691406 Z M 1.132812 -16.691406 " fill-opacity="1" fill-rule="nonzero"/></g><path fill="#000000" d="M 31.113281 -30.542969 C 31.921875 -30.542969 32.691406 -30.34375 33.421875 -29.9375 C 34.148438 -29.53125 34.71875 -28.964844 35.121094 -28.234375 C 35.527344 -27.507812 35.730469 -26.738281 35.730469 -25.925781 C 35.730469 -25.007812 35.472656 -24.171875 34.960938 -23.414062 C 34.445312 -22.660156 33.785156 -22.089844 32.976562 -21.714844 C 33.246094 -22.363281 33.378906 -23.011719 33.378906 -23.65625 C 33.378906 -24.46875 33.179688 -25.222656 32.773438 -25.925781 C 32.367188 -26.628906 31.8125 -27.183594 31.113281 -27.585938 C 30.410156 -27.992188 29.652344 -28.195312 28.84375 -28.195312 C 28.195312 -28.195312 27.546875 -28.058594 26.898438 -27.789062 C 27.277344 -28.601562 27.84375 -29.261719 28.601562 -29.773438 C 29.355469 -30.289062 30.195312 -30.542969 31.113281 -30.542969 Z M 31.113281 -30.542969 " fill-opacity="1" fill-rule="nonzero"/><path fill="#a0041e" d="M 9.234375 -4.050781 C 9.234375 -7.128906 9.613281 -9.046875 10.371094 -9.804688 C 10.910156 -10.34375 12.367188 -11.585938 14.746094 -13.53125 C 17.121094 -15.476562 19.59375 -17.339844 22.160156 -19.121094 C 24.726562 -20.902344 26.167969 -21.632812 26.492188 -21.308594 C 26.980469 -20.820312 25.480469 -18.324219 21.996094 -13.8125 C 18.511719 -9.304688 16.175781 -6.425781 14.988281 -5.183594 C 14.664062 -4.859375 14.015625 -4.605469 13.042969 -4.414062 C 12.070312 -4.226562 11.179688 -4.105469 10.371094 -4.050781 Z M 9.234375 -4.050781 " fill-opacity="1" fill-rule="nonzero"/></g></g></g></g></mask></defs><g fill="#ffffff" fill-opacity="1"><g transform="translate(69.28605, 76.565108)"><g><path d="M 49.421875 -51.484375 L 49.421875 0 C 47.171875 0 44.925781 0 42.6875 0 C 40.457031 0 38.21875 0 35.96875 0 L 35.96875 -20.671875 L 20.078125 -20.671875 L 20.078125 0 C 17.816406 0 15.554688 0 13.296875 0 C 11.046875 0 8.820312 0 6.625 0 L 6.625 -51.484375 C 8.820312 -51.484375 11.046875 -51.484375 13.296875 -51.484375 C 15.554688 -51.484375 17.816406 -51.484375 20.078125 -51.484375 L 20.078125 -32.796875 L 35.96875 -32.796875 L 35.96875 -51.484375 C 38.21875 -51.484375 40.457031 -51.484375 42.6875 -51.484375 C 44.925781 -51.484375 47.171875 -51.484375 49.421875 -51.484375 Z M 49.421875 -51.484375 "/></g></g></g><g fill="#ffffff" fill-opacity="1"><g transform="translate(122.740888, 76.565108)"><g><path d="M 56.1875 -25.671875 C 56.1875 -21.203125 55.4375 -17.300781 53.9375 -13.96875 C 52.445312 -10.632812 50.453125 -7.851562 47.953125 -5.625 C 45.453125 -3.394531 42.628906 -1.710938 39.484375 -0.578125 C 36.347656 0.546875 33.113281 1.109375 29.78125 1.109375 C 26.445312 1.109375 23.210938 0.546875 20.078125 -0.578125 C 16.941406 -1.710938 14.125 -3.394531 11.625 -5.625 C 9.125 -7.851562 7.125 -10.632812 5.625 -13.96875 C 4.132812 -17.300781 3.390625 -21.203125 3.390625 -25.671875 C 3.390625 -30.128906 4.132812 -34.023438 5.625 -37.359375 C 7.125 -40.691406 9.125 -43.472656 11.625 -45.703125 C 14.125 -47.941406 16.941406 -49.609375 20.078125 -50.703125 C 23.210938 -51.804688 26.445312 -52.359375 29.78125 -52.359375 C 33.113281 -52.359375 36.347656 -51.804688 39.484375 -50.703125 C 42.628906 -49.609375 45.453125 -47.941406 47.953125 -45.703125 C 50.453125 -43.472656 52.445312 -40.691406 53.9375 -37.359375 C 55.4375 -34.023438 56.1875 -30.128906 56.1875 -25.671875 Z M 16.921875 -25.671875 C 16.921875 -22.578125 17.546875 -19.988281 18.796875 -17.90625 C 20.046875 -15.820312 21.648438 -14.265625 23.609375 -13.234375 C 25.566406 -12.203125 27.632812 -11.6875 29.8125 -11.6875 C 32 -11.6875 34.070312 -12.203125 36.03125 -13.234375 C 38 -14.265625 39.609375 -15.820312 40.859375 -17.90625 C 42.109375 -19.988281 42.734375 -22.578125 42.734375 -25.671875 C 42.734375 -28.753906 42.109375 -31.328125 40.859375 -33.390625 C 39.609375 -35.453125 38 -36.992188 36.03125 -38.015625 C 34.070312 -39.046875 32 -39.5625 29.8125 -39.5625 C 27.632812 -39.5625 25.566406 -39.046875 23.609375 -38.015625 C 21.648438 -36.992188 20.046875 -35.453125 18.796875 -33.390625 C 17.546875 -31.328125 16.921875 -28.753906 16.921875 -25.671875 Z M 16.921875 -25.671875 "/></g></g></g><g fill="#ffffff" fill-opacity="1"><g transform="translate(179.725108, 76.565108)"><g><path d="M 39.9375 -18.234375 L 50.015625 -1.90625 L 50.015625 0 L 35.296875 0 L 26.484375 -15.15625 L 19.640625 -15.15625 L 19.640625 0 C 17.429688 0 15.222656 0 13.015625 0 C 10.804688 0 8.625 0 6.46875 0 C 6.46875 -8.582031 6.46875 -17.160156 6.46875 -25.734375 C 6.46875 -34.316406 6.46875 -42.898438 6.46875 -51.484375 C 10.195312 -51.484375 13.960938 -51.484375 17.765625 -51.484375 C 21.566406 -51.484375 25.328125 -51.484375 29.046875 -51.484375 C 32.429688 -51.484375 35.347656 -50.867188 37.796875 -49.640625 C 40.253906 -48.421875 42.242188 -46.804688 43.765625 -44.796875 C 45.285156 -42.785156 46.347656 -40.566406 46.953125 -38.140625 C 47.566406 -35.710938 47.710938 -33.242188 47.390625 -30.734375 C 47.078125 -28.234375 46.296875 -25.894531 45.046875 -23.71875 C 43.796875 -21.539062 42.09375 -19.710938 39.9375 -18.234375 Z M 29.046875 -26.84375 C 30.472656 -26.84375 31.625 -27.269531 32.5 -28.125 C 33.382812 -28.988281 33.984375 -30.054688 34.296875 -31.328125 C 34.617188 -32.609375 34.632812 -33.882812 34.34375 -35.15625 C 34.050781 -36.425781 33.472656 -37.503906 32.609375 -38.390625 C 31.753906 -39.273438 30.566406 -39.71875 29.046875 -39.71875 C 27.523438 -39.757812 25.96875 -39.769531 24.375 -39.75 C 22.78125 -39.726562 21.203125 -39.71875 19.640625 -39.71875 C 19.640625 -37.601562 19.640625 -35.441406 19.640625 -33.234375 C 19.640625 -31.035156 19.640625 -28.90625 19.640625 -26.84375 Z M 29.046875 -26.84375 "/></g></g></g><g fill="#ffffff" fill-opacity="1"><g transform="translate(228.547645, 76.565108)"><g><path d="M 21.84375 -11.546875 L 28.390625 -11.546875 L 28.390625 0 L 2.28125 0 L 2.28125 -11.546875 L 8.828125 -11.546875 L 8.828125 -40.015625 L 2.796875 -40.015625 L 2.796875 -51.484375 L 27.875 -51.484375 L 27.875 -40.015625 L 21.84375 -40.015625 Z M 21.84375 -11.546875 "/></g></g></g><g fill="#ffffff" fill-opacity="1"><g transform="translate(256.414513, 76.565108)"><g><path d="M 42.578125 -51.484375 L 42.578125 -49.5 L 21.46875 -11.765625 L 42.796875 -11.765625 C 42.796875 -9.515625 42.796875 -7.554688 42.796875 -5.890625 C 42.796875 -4.222656 42.796875 -2.257812 42.796875 0 L 1.6875 0 L 1.6875 -1.984375 L 22.71875 -39.71875 L 3.609375 -39.71875 C 3.609375 -41.96875 3.609375 -43.925781 3.609375 -45.59375 C 3.609375 -47.257812 3.609375 -49.222656 3.609375 -51.484375 Z M 42.578125 -51.484375 "/></g></g></g><g fill="#ffffff" fill-opacity="1"><g transform="translate(298.770875, 76.565108)"><g/></g></g><g fill="#ffffff" fill-opacity="1"><g transform="translate(316.417273, 76.565108)"><g/></g></g><g fill="#ffffff" fill-opacity="1"><g transform="translate(334.06367, 76.565108)"><g/></g></g><g fill="#ffffff" fill-opacity="1"><g transform="translate(351.721724, 76.565108)"><g><path d="M 46.109375 0.078125 L 20.15625 -25.296875 L 20.15625 0 C 17.894531 0 15.625 0 13.34375 0 C 11.0625 0 8.796875 0 6.546875 0 L 6.546875 -51.703125 L 11.328125 -51.703125 L 37.359375 -26.25 L 37.359375 -51.484375 C 39.617188 -51.484375 41.863281 -51.484375 44.09375 -51.484375 C 46.320312 -51.484375 48.566406 -51.484375 50.828125 -51.484375 L 50.828125 0.078125 Z M 46.109375 0.078125 "/></g></g></g><g fill="#ffffff" fill-opacity="1"><g transform="translate(406.506112, 76.565108)"><g/></g></g><g fill="#ffffff" fill-opacity="1"><g transform="translate(424.15251, 76.565108)"><g/></g></g><g fill="#ffffff" fill-opacity="1"><g transform="translate(441.798907, 76.565108)"><g/></g></g><g fill="#ffffff" fill-opacity="1"><g transform="translate(459.445305, 76.565108)"><g/></g></g><g clip-path="url(#c1828705d7)"><path fill="#ffffff" d="M 322.539062 68.046875 C 316.042969 65.570312 311.292969 59.550781 310.660156 52.347656 C 309.171875 54.4375 307.925781 56.515625 306.960938 58.527344 C 304.523438 63.625 304.230469 67.773438 306.152344 69.902344 C 308.074219 72.035156 312.230469 72.164062 317.550781 70.257812 C 319.167969 69.679688 320.839844 68.9375 322.539062 68.046875 Z M 310.707031 48.601562 C 311.515625 41.390625 316.457031 35.429688 323.109375 33.144531 C 321.210938 32.121094 319.347656 31.273438 317.550781 30.628906 C 312.230469 28.722656 308.074219 28.855469 306.152344 30.984375 C 304.230469 33.117188 304.523438 37.261719 306.960938 42.363281 C 307.933594 44.394531 309.195312 46.492188 310.707031 48.601562 Z M 348.246094 54.507812 C 350.222656 57.785156 351.523438 60.917969 352.023438 63.609375 C 352.613281 66.769531 352.105469 69.347656 350.550781 71.066406 C 349.1875 72.578125 347.117188 73.339844 344.5 73.339844 C 342.417969 73.339844 339.988281 72.859375 337.285156 71.890625 C 335.335938 71.191406 333.308594 70.265625 331.253906 69.140625 C 330.5625 69.21875 329.859375 69.261719 329.148438 69.261719 C 327.667969 69.261719 326.230469 69.085938 324.851562 68.761719 C 322.558594 70.058594 320.300781 71.113281 318.136719 71.890625 C 315.433594 72.859375 313 73.339844 310.917969 73.339844 C 308.300781 73.339844 306.234375 72.578125 304.867188 71.066406 C 302.414062 68.347656 302.601562 63.628906 305.398438 57.78125 C 306.542969 55.390625 308.066406 52.917969 309.90625 50.445312 C 308.066406 47.972656 306.542969 45.5 305.398438 43.109375 C 302.601562 37.261719 302.414062 32.542969 304.867188 29.824219 C 307.320312 27.105469 312.03125 26.8125 318.136719 29 C 320.503906 29.847656 322.984375 31.03125 325.496094 32.5 C 326.675781 32.261719 327.898438 32.136719 329.148438 32.136719 C 329.59375 32.136719 330.03125 32.152344 330.46875 32.183594 C 332.792969 30.863281 335.085938 29.785156 337.285156 29 C 343.386719 26.8125 348.097656 27.105469 350.550781 29.824219 C 353.007812 32.542969 352.816406 37.261719 350.019531 43.109375 C 348.109375 47.101562 345.132812 51.335938 341.40625 55.398438 C 341.179688 55.34375 340.957031 55.28125 340.734375 55.214844 C 340.347656 55.09375 339.972656 54.953125 339.605469 54.792969 C 339.488281 54.746094 339.375 54.691406 339.265625 54.640625 C 339.203125 54.609375 339.144531 54.582031 339.085938 54.550781 C 339.039062 54.527344 338.992188 54.507812 338.945312 54.480469 C 338.867188 54.441406 338.785156 54.402344 338.707031 54.359375 C 338.6875 54.347656 338.667969 54.335938 338.648438 54.324219 C 338.558594 54.273438 338.46875 54.222656 338.378906 54.171875 C 337.820312 53.847656 337.292969 53.472656 336.800781 53.0625 C 336.636719 52.921875 336.644531 52.695312 336.765625 52.558594 C 336.796875 52.523438 336.832031 52.496094 336.875 52.476562 C 336.878906 52.472656 336.882812 52.472656 336.882812 52.472656 C 336.902344 52.464844 336.917969 52.457031 336.9375 52.453125 C 336.945312 52.453125 336.949219 52.449219 336.957031 52.449219 C 336.980469 52.445312 337.003906 52.441406 337.027344 52.441406 L 337.777344 52.441406 C 337.96875 52.441406 338.125 52.285156 338.125 52.089844 L 338.125 50.445312 L 338.128906 48.796875 C 338.128906 48.605469 337.972656 48.445312 337.777344 48.445312 L 337.03125 48.445312 C 337.007812 48.445312 336.984375 48.441406 336.960938 48.4375 C 336.960938 48.4375 336.957031 48.4375 336.957031 48.4375 C 336.9375 48.433594 336.914062 48.425781 336.898438 48.417969 C 336.667969 48.328125 336.589844 48.003906 336.804688 47.824219 C 337.4375 47.292969 338.132812 46.828125 338.875 46.441406 C 338.992188 46.382812 339.113281 46.320312 339.234375 46.265625 C 339.347656 46.210938 339.457031 46.160156 339.570312 46.109375 C 339.582031 46.105469 339.59375 46.101562 339.605469 46.09375 C 339.972656 45.9375 340.351562 45.796875 340.734375 45.675781 C 340.957031 45.609375 341.179688 45.546875 341.40625 45.492188 C 342.46875 46.652344 343.472656 47.828125 344.414062 49.019531 C 346.054688 46.769531 347.421875 44.527344 348.457031 42.363281 C 350.894531 37.261719 351.191406 33.117188 349.265625 30.984375 C 348.246094 29.855469 346.601562 29.289062 344.488281 29.289062 C 342.613281 29.289062 340.367188 29.734375 337.867188 30.628906 C 336.394531 31.15625 334.871094 31.824219 333.324219 32.609375 C 338.082031 33.703125 342.140625 36.625 344.71875 40.597656 L 341.011719 44.304688 C 340.441406 44.207031 339.851562 44.148438 339.253906 44.140625 C 339.203125 44.140625 339.15625 44.140625 339.105469 44.140625 C 336.796875 44.140625 334.648438 44.824219 332.851562 46.007812 C 332.753906 46.070312 332.628906 46.082031 332.519531 46.039062 C 331.167969 45.46875 329.683594 45.15625 328.125 45.152344 C 324.160156 45.148438 320.667969 47.171875 318.625 50.242188 C 318.550781 50.359375 318.550781 50.511719 318.625 50.628906 C 320.664062 53.699219 324.15625 55.726562 328.121094 55.726562 C 329.679688 55.726562 331.164062 55.414062 332.515625 54.847656 C 332.625 54.800781 332.75 54.8125 332.847656 54.878906 C 334.644531 56.058594 336.789062 56.75 339.101562 56.75 C 339.152344 56.75 339.203125 56.75 339.253906 56.746094 C 339.789062 56.738281 340.3125 56.695312 340.824219 56.617188 L 344.832031 60.625 C 342.378906 64.496094 338.535156 67.390625 334.007812 68.617188 C 335.320312 69.257812 336.609375 69.808594 337.867188 70.257812 C 343.1875 72.164062 347.34375 72.035156 349.265625 69.902344 C 350.753906 68.257812 350.660156 65.746094 350.320312 63.929688 C 349.855469 61.4375 348.632812 58.5 346.761719 55.398438 C 346.519531 54.996094 346.648438 54.472656 347.046875 54.222656 C 347.457031 53.964844 348 54.09375 348.246094 54.507812 Z M 327.050781 48.226562 C 328.421875 48.117188 329.558594 49.25 329.453125 50.625 C 329.367188 51.703125 328.496094 52.578125 327.414062 52.660156 C 326.046875 52.769531 324.910156 51.636719 325.015625 50.269531 C 325.097656 49.1875 325.972656 48.316406 327.050781 48.226562 " fill-opacity="1" fill-rule="nonzero"/></g><g fill="#ffffff" fill-opacity="1"><g transform="translate(171.780961, 121.518919)"><g><path d="M 11.125 0 C 9.875 0 8.625 0 7.375 0 C 6.132812 0 4.90625 0 3.6875 0 C 3.6875 -4.84375 3.6875 -9.679688 3.6875 -14.515625 C 3.6875 -19.359375 3.6875 -24.195312 3.6875 -29.03125 C 5.789062 -29.03125 7.914062 -29.03125 10.0625 -29.03125 C 12.207031 -29.03125 14.34375 -29.03125 16.46875 -29.03125 C 18.457031 -29.03125 20.15625 -28.632812 21.5625 -27.84375 C 22.976562 -27.0625 24.113281 -26.023438 24.96875 -24.734375 C 25.832031 -23.453125 26.398438 -22.046875 26.671875 -20.515625 C 26.953125 -18.984375 26.953125 -17.445312 26.671875 -15.90625 C 26.398438 -14.375 25.832031 -12.960938 24.96875 -11.671875 C 24.113281 -10.390625 22.976562 -9.359375 21.5625 -8.578125 C 20.15625 -7.804688 18.457031 -7.421875 16.46875 -7.421875 L 11.125 -7.421875 Z M 16.421875 -14.109375 C 17.222656 -14.109375 17.878906 -14.382812 18.390625 -14.9375 C 18.910156 -15.488281 19.257812 -16.175781 19.4375 -17 C 19.613281 -17.832031 19.625 -18.65625 19.46875 -19.46875 C 19.320312 -20.289062 18.992188 -20.984375 18.484375 -21.546875 C 17.972656 -22.117188 17.285156 -22.40625 16.421875 -22.40625 C 15.566406 -22.425781 14.679688 -22.429688 13.765625 -22.421875 C 12.859375 -22.410156 11.976562 -22.40625 11.125 -22.40625 C 11.125 -21.625 11.125 -20.734375 11.125 -19.734375 C 11.125 -18.742188 11.125 -17.757812 11.125 -16.78125 C 11.125 -15.800781 11.125 -14.910156 11.125 -14.109375 Z M 16.421875 -14.109375 "/></g></g></g><g fill="#ffffff" fill-opacity="1"><g transform="translate(200.569801, 121.518919)"><g><path d="M 11.125 -29.03125 C 11.125 -26.875 11.125 -25.09375 11.125 -23.6875 C 11.125 -22.28125 11.125 -21.113281 11.125 -20.1875 C 11.125 -19.257812 11.125 -18.46875 11.125 -17.8125 C 11.125 -17.164062 11.125 -16.546875 11.125 -15.953125 C 11.125 -15.359375 11.125 -14.679688 11.125 -13.921875 C 11.125 -13.160156 11.125 -12.203125 11.125 -11.046875 C 11.125 -9.898438 11.125 -8.441406 11.125 -6.671875 L 21.65625 -6.671875 C 21.65625 -5.429688 21.65625 -4.316406 21.65625 -3.328125 C 21.65625 -2.347656 21.65625 -1.238281 21.65625 0 C 18.664062 0 15.65625 0 12.625 0 C 9.601562 0 6.613281 0 3.65625 0 L 3.65625 -29.03125 C 4.894531 -29.03125 6.128906 -29.03125 7.359375 -29.03125 C 8.585938 -29.03125 9.84375 -29.03125 11.125 -29.03125 Z M 11.125 -29.03125 "/></g></g></g><g fill="#ffffff" fill-opacity="1"><g transform="translate(223.634054, 121.518919)"><g><path d="M 22.15625 0 L 20.453125 -3.65625 L 9 -3.65625 L 7.296875 0 L 0.046875 0 L 0.046875 -1.078125 L 13.109375 -29.40625 L 16.296875 -29.40625 L 29.40625 -1.078125 L 29.40625 0 Z M 18.046875 -10 L 14.6875 -17.625 L 11.40625 -10 Z M 18.046875 -10 "/></g></g></g><g fill="#ffffff" fill-opacity="1"><g transform="translate(253.169573, 121.518919)"><g><path d="M 17.46875 -12.203125 L 17.46875 0 L 10.125 0 L 10.125 -12.203125 L 0.375 -27.921875 L 0.375 -29.03125 L 8.375 -29.03125 L 13.640625 -19.375 L 13.9375 -19.375 L 19.203125 -29.03125 L 27.25 -29.03125 L 27.25 -27.921875 Z M 17.46875 -12.203125 "/></g></g></g><g fill="#ffffff" fill-opacity="1"><g transform="translate(280.755412, 121.518919)"><g><rect x="-1.1" width="1.2" height="1.2" y="-1.1" mask="url(#a24fa22b67)"/></g></g></g></svg>